# xmcd
#
# Track frame offsets:
#	150
#	18654
#	29997
#	43451
#	54403
#	68707
#	81669
#	90827
#	107417
#	118788
#
# Disc length: 1753 seconds
#
# Revision: 1
# Processed by: cddbd v1.5.2PL0 Copyright (c) Steve Scherf et al.
# Submitted via: audiograbber 1.83.01
#
DISCID=8906d70a
DTITLE=Roland Heinrich - Warten auf den Zug
DYEAR=2010
DGENRE=Country
TTITLE0=Vorsätzlich
TTITLE1=Es ist nicht gut
TTITLE2=Treib mir die Trübsal aus
TTITLE3=400 Km bis nach Essen
TTITLE4=Für alles was mal war
TTITLE5=Warten auf den Zug
TTITLE6=Das Lied vom armen Tropf
TTITLE7=Betrübter Jodler #6
TTITLE8=Ich lauf mir ´nen Wolf
TTITLE9=In ferne Länder zieh'n
EXTD=
EXTT0=
EXTT1=
EXTT2=
EXTT3=
EXTT4=
EXTT5=
EXTT6=
EXTT7=
EXTT8=
EXTT9=
PLAYORDER=
